<svg xmlns="http://www.w3.org/2000/svg" xmlns:xlink="http://www.w3.org/1999/xlink" width="200" height="50" viewBox="0 0 200 50">
    <defs>
        <path id="a" d="M9.293 7.451H.254V1.255h29.648v6.154h-9.31v41.092h-11.3V7.451"/>
        <path id="b" d="M33.192 1.383v46.65h24.33V41.78H44.09V25.881h12.925v-5.733H44.09V7.378h13.432V1.383l-24.33-.001"/>
        <path id="c" d="M93.257 1.383v46.912h10.898V25.62h6.067v22.674h11.167V1.368h-11.086v17.916l-6.148.082V1.398l-10.898-.015"/>
        <path id="d" d="M78.623 7.829v10.989h11.003v-7.582s1.242-9.54-9.761-10.988C74.07-.165 62.69-.518 61.25 7.233l.165 35.01s.001 5.962 9.35 7.07l9.264.084s8.935-.255 9.68-8.092l-.083-11.243-11.003-.171v11.708c0 2.464-5.841 2.683-6.205.047V7.49s-.413-2.3 3.64-2.045c0 0 2.103-.087 2.565 2.385"/>
    </defs>
    <g fill="none" fill-rule="evenodd">
        <g>
            <use fill="#25426A" xlink:href="#a"/>
            <use fill="#FFF" xlink:href="#a"/>
        </g>
        <g>
            <use fill="#25426A" xlink:href="#b"/>
            <use fill="#FFF" xlink:href="#b"/>
        </g>
        <g>
            <use fill="#25426A" xlink:href="#c"/>
            <use fill="#FFF" xlink:href="#c"/>
        </g>
        <g>
            <use fill="#25426A" xlink:href="#d"/>
            <use fill="#FFF" xlink:href="#d"/>
        </g>
        <path fill="#FFF" d="M156.588 48.419h11.213V1.329h-11.213zM153.327 18.95V8.106s-.63-6.303-9.272-7.507c0 0-2.97-.741-9.541-.185-6.572.555-9.002 5.097-9.452 6.95-.45 1.854 0 34.664 0 34.664s.27 5.469 8.011 7.415c7.742 1.946 13.323-3.244 13.323-3.244s.99.835.99 1.947l5.941.37V24.975h-15.753v5.839h4.681v10.751s.09 2.41-3.51 2.41c-3.6 0-2.7-3.893-2.7-3.893V7.92s.719-2.224 3.51-1.946c2.79.279 2.88 2.318 2.88 2.318v10.751l10.892-.093M199.722 18.957V8.113S199.09 1.81 190.45.605c0 0-2.97-.741-9.542-.185-6.57.556-9 5.097-9.452 6.951-.45 1.854 0 34.664 0 34.664s.27 5.469 8.012 7.415c7.742 1.946 13.322-3.244 13.322-3.244s.99.835.99 1.946l5.942.371V24.982h-15.753v5.838h4.68v10.751s.09 2.41-3.51 2.41c-3.6 0-2.7-3.892-2.7-3.892V7.927s.719-2.225 3.51-1.946c2.79.278 2.88 2.317 2.88 2.317V19.05l10.893-.093"/>
    </g>
</svg>
